<svg width="224" height="40" viewBox="0 0 224 40" fill="none" xmlns="http://www.w3.org/2000/svg">
<g clip-path="url(#clip0_40000038_162)">
<path fill-rule="evenodd" clip-rule="evenodd" d="M17.8177 4C18.3865 4 19.0773 4.17296 20.5603 4.99454L21.3729 4.49727C21.9011 4.17296 22.5106 4 23.1607 4C23.6889 4 24.3593 4.1081 24.664 4.23782C24.989 4.34593 25.5376 4.77833 25.9235 5.14588C26.2892 5.53505 26.7362 6.16204 26.8784 6.52959C27.0409 6.91875 27.1628 7.63223 27.1628 8.10787C27.1628 8.58352 27.0206 9.34024 26.8377 9.79426C26.6549 10.2699 25.3547 11.8482 20.5603 16.9722L17.5536 13.794C15.8877 12.0212 14.4453 10.3996 14.3234 10.1618C14.2016 9.92399 14.0187 9.38348 13.9375 8.97269C13.8359 8.54028 13.8562 7.78357 13.9781 7.24306C14.1 6.70255 14.4047 5.94583 14.6485 5.53505C14.9329 5.12426 15.5221 4.64861 16.0096 4.41079C16.4972 4.19458 17.3098 4 17.8177 4ZM27.6707 16.7776C27.9145 16.7776 28.6255 17.3398 29.4991 18.2695C30.7993 19.6748 31.1243 19.891 36 22.0746V32.193L29.4991 34.7226L27.5894 34.4415C26.5533 34.2902 25.6595 34.0956 25.6188 34.0091C25.5782 33.901 25.6391 33.6632 25.761 33.4686C25.9236 33.1875 26.2486 33.0794 27.0003 33.0794C27.8738 33.0794 28.077 32.9929 28.6052 32.3876C29.0724 31.8254 29.1943 31.4795 29.1943 30.7012C29.1943 29.9661 29.3162 29.5769 29.7022 29.1445C30.0476 28.7553 30.2304 28.3013 30.2101 27.8473C30.2101 27.4581 30.0882 26.8744 29.9257 26.5501C29.7429 26.1609 28.9912 25.5771 27.7926 24.8637C26.7768 24.2799 25.9439 23.6529 25.9439 23.5232C25.9439 23.3719 26.2892 23.1557 26.6955 23.0476C27.1222 22.9178 27.7316 22.7665 28.077 22.7016C28.4223 22.6152 28.9912 22.4638 29.3365 22.3557C29.8038 22.226 30.007 22.0314 30.007 21.7287C30.007 21.4909 29.8851 21.2531 29.7428 21.1882C29.621 21.1233 28.5646 21.3179 27.4066 21.6206C26.2689 21.9233 25.0703 22.1611 24.7249 22.1611C24.3796 22.1611 24.0748 22.053 24.0139 21.9449C23.953 21.8368 23.9936 21.6855 24.1155 21.6206C24.2171 21.5558 24.3186 21.3179 24.3186 21.0801C24.3186 20.8423 24.1967 20.6045 24.0545 20.5612C23.9326 20.518 22.3277 21.2963 20.4993 22.2908C18.5287 23.3935 16.9645 24.107 16.5988 24.107C16.1925 24.107 15.9216 23.9628 15.7862 23.6746C15.6643 23.4367 15.583 23.0692 15.583 22.8746C15.5627 22.6368 16.5785 21.5558 20.5603 17.9668L23.9123 17.383C25.761 17.0587 27.4472 16.7993 27.6707 16.7776ZM7.8022 17.1884C7.82251 17.1884 8.98049 17.7938 12.8404 19.8477L14.6688 19.6099C15.6643 19.5018 16.5785 19.4586 16.6597 19.5234C16.7613 19.6099 16.355 20.1072 15.7862 20.6477C15.1564 21.2531 14.6688 21.9017 14.5266 22.3773C14.3438 23.0043 14.3844 23.2854 14.6891 23.9772C14.9126 24.4313 15.3189 24.9502 15.6236 25.1015C15.9487 25.2745 16.4159 25.4042 16.7004 25.4042C16.9848 25.4042 18.3053 24.8204 22.0839 22.8097L25.5579 24.9285C27.5488 26.1393 29.0521 27.1771 29.1131 27.3933C29.1537 27.6095 29.0928 27.977 28.9912 28.2148C28.8693 28.4527 28.6052 28.6905 28.3817 28.7553C28.1176 28.8202 26.9393 28.2581 25.0297 27.1338C23.4044 26.1825 21.9824 25.4474 21.8808 25.5123C21.7589 25.5771 21.6776 25.815 21.6776 26.0528C21.6776 26.3771 22.409 26.9176 24.8265 28.3662C26.8581 29.5985 28.016 30.4201 28.0973 30.7012C28.1582 30.9606 28.0567 31.2849 27.8332 31.5228C27.63 31.739 27.2441 31.8903 26.9596 31.8903C26.6752 31.8903 24.989 31.0039 23.2013 29.9228C21.4135 28.8634 19.8086 28.0203 19.6461 28.0419C19.4836 28.0851 19.3414 28.3013 19.3414 28.5391C19.3414 28.8418 20.0524 29.3823 22.0839 30.6363C23.5873 31.5444 24.8468 32.4092 24.8671 32.5173C24.9078 32.647 24.7453 32.9497 24.5218 33.1875C24.2983 33.4253 23.8514 33.6199 23.506 33.6199C23.1403 33.6199 22.023 33.101 20.7025 32.3227C19.5039 31.6092 18.3662 31.0255 18.1631 31.0255C17.9802 31.0255 17.5333 30.7444 17.2082 30.3769C16.8629 30.0093 16.4159 29.7283 16.1925 29.7283C15.969 29.7283 15.5017 29.4472 15.1767 29.0796C14.7704 28.6472 14.3641 28.431 13.9578 28.431C13.5108 28.431 13.328 28.3013 13.2467 27.9986C13.1858 27.7608 12.8404 27.4149 12.4747 27.2203C11.9059 26.896 11.7434 26.896 11.1339 27.1554C10.687 27.35 10.2807 27.7824 9.97595 28.3662C9.71185 28.8851 9.3868 29.2959 9.28522 29.2959C9.16333 29.2959 7.96472 28.6472 6.58327 27.8473C5.22214 27.0473 4.06416 26.3771 4.00322 26.3339C3.94227 26.3122 4.75489 24.2367 5.81129 21.7287C6.86769 19.2424 7.76157 17.1884 7.8022 17.1884ZM20.0524 33.4037C20.1133 33.4037 20.6009 33.6632 21.1494 33.9875C21.6979 34.3118 22.1855 34.7442 22.2465 34.9172C22.3074 35.0901 22.1449 35.4144 21.8605 35.6306C21.5964 35.8468 21.1291 36.0198 20.8041 35.9982C20.4993 35.9982 20.0118 35.8252 19.6867 35.6306C19.382 35.436 19.1179 35.2415 19.0773 35.1982C19.0569 35.155 19.2398 34.7442 19.4836 34.2685C19.7273 33.7929 19.9915 33.4037 20.0524 33.4037ZM11.8043 28.2581C12.0481 28.3013 12.2513 28.5175 12.2919 28.7553C12.3325 28.9932 12.1091 29.6418 11.784 30.2039C11.4793 30.7877 11.0933 31.2849 10.9511 31.3498C10.8292 31.4146 10.5651 31.4146 10.4026 31.3498C10.24 31.2849 10.0775 31.0471 10.0572 30.8093C10.0369 30.5715 10.3213 29.8796 10.7073 29.2959C11.2152 28.4527 11.4793 28.2148 11.8043 28.2581ZM13.8968 29.5553C14.0797 29.5985 14.3031 29.7715 14.425 29.9445C14.5672 30.1823 14.4047 30.6796 13.7749 31.8471C13.0842 33.1227 12.8607 33.4037 12.4341 33.4037C12.1497 33.4037 11.8856 33.2524 11.8247 33.0794C11.7637 32.9065 11.8247 32.5389 11.9465 32.2795C12.0888 31.9984 12.4951 31.2633 12.8811 30.6363C13.328 29.9012 13.6937 29.5121 13.8968 29.5553ZM16.0706 31.0687C16.294 31.112 16.5175 31.3065 16.5378 31.5228C16.5785 31.7173 16.1722 32.6686 15.6236 33.6199C15.0954 34.5712 14.5266 35.3496 14.3641 35.3496C14.2016 35.3712 13.9375 35.2198 13.7952 35.0253C13.5921 34.7658 13.6734 34.4847 14.2016 33.4686C14.5469 32.7767 15.0142 31.9335 15.2376 31.6092C15.495 31.2057 15.7726 31.0255 16.0706 31.0687ZM18.1631 32.3227C18.4272 32.3227 18.6709 32.4741 18.7319 32.647C18.7928 32.82 18.5084 33.5983 18.1224 34.3766C17.5333 35.5225 17.3301 35.782 16.9035 35.782C16.6191 35.782 16.355 35.6306 16.294 35.4577C16.2331 35.2847 16.5378 34.5064 16.9441 33.728C17.513 32.6254 17.7771 32.3227 18.1631 32.3227Z" fill="#5FC2D1"/>
<path d="M49.5617 30.0988C53.054 30.0988 55.3175 27.7936 55.3175 24.5664V23.0604C55.3175 21.2777 54.3797 19.6487 52.7306 18.8189C54.0241 18.0198 54.8001 16.5445 54.8001 14.7618V13.4709C54.8001 10.2437 52.6983 8 49.5617 8C46.4575 8 44.4527 10.09 44.291 13.3787C44.291 13.6553 44.4527 13.809 44.7114 13.809H46.7809C47.0395 13.809 47.2012 13.6553 47.2336 13.3787C47.3306 11.5346 48.1066 10.5818 49.5617 10.5818C51.0168 10.5818 51.8899 11.6268 51.8899 13.2865V14.9155C51.8899 16.5445 51.0168 17.6817 49.5294 17.6817H47.4276C47.1689 17.6817 47.0072 17.8354 47.0072 18.112V19.7717C47.0072 20.0483 47.1689 20.202 47.4276 20.202H49.6264C51.3402 20.202 52.4073 21.4314 52.4073 23.0296V24.6586C52.4073 26.3183 51.3079 27.517 49.5941 27.517C48.1066 27.517 47.0719 26.472 46.9425 24.8123C46.9425 24.5357 46.7809 24.4127 46.5222 24.4127H44.4527C44.1617 24.4127 44 24.5664 44 24.8123C44.194 27.9781 46.3605 30.0988 49.5617 30.0988Z" fill="#5FC2D1"/>
<path d="M65.2943 30.1602C68.3985 30.1602 70.3386 28.1317 70.3386 25.304V19.1262C70.3386 16.2371 68.3662 14.1471 65.2943 14.1471C62.4164 14.1471 60.5086 16.0527 60.3146 18.7267C60.3146 18.9725 60.4763 19.1569 60.735 19.1569H62.6104C62.9014 19.1569 63.0308 19.0647 63.0631 18.7881C63.1601 17.528 63.9038 16.6674 65.2619 16.6674C66.717 16.6674 67.5901 17.6202 67.5901 19.0033V20.6937H65.1649C62.1254 20.6937 60.0559 22.6608 60.0559 25.2118C60.0559 28.101 62.1577 30.1602 65.2943 30.1602ZM65.2619 27.6399C63.7422 27.6399 62.8368 26.6871 62.8368 25.2118C62.8368 24.0132 63.7422 23.0604 65.2619 23.0604H67.5901V25.304C67.5901 26.7179 66.7494 27.6399 65.2619 27.6399Z" fill="#6CBFD0"/>
<path d="M80.9448 30.1911C84.0491 30.1911 86.0862 28.1933 86.0862 25.4271V19.6795C86.0862 16.7904 84.2107 14.7926 81.6239 14.7926C80.2981 14.7926 79.328 15.1922 78.5843 15.8991V14.977C78.5843 12.7333 79.3281 11.9035 80.9125 11.3502C81.8179 11.0429 83.3377 10.7355 84.5341 10.5204C84.7928 10.4896 84.9221 10.336 84.9221 10.0901V8.43035C84.9221 8.15373 84.7281 8.03079 84.4371 8.06153C83.4347 8.27667 81.9472 8.58403 80.3951 9.01432C77.5819 9.78271 75.8035 11.5654 75.8035 15.0077V25.4271C75.8035 28.1933 77.8729 30.1911 80.9448 30.1911ZM80.9448 27.6708C79.4574 27.6708 78.5843 26.6872 78.5843 25.2119V19.7717C78.5843 18.2964 79.4574 17.2822 80.9448 17.2822C82.4323 17.2822 83.3377 18.2964 83.3377 19.7717V25.2119C83.3377 26.6872 82.4323 27.6708 80.9448 27.6708Z" fill="#79BDD0"/>
<path d="M96.4862 30.191C99.6228 30.191 101.66 28.101 101.66 25.1811V19.1569C101.66 16.2371 99.6228 14.1471 96.4862 14.1471C93.382 14.1471 91.3125 16.2371 91.3125 19.1569V25.1811C91.3125 28.101 93.382 30.191 96.4862 30.191ZM96.4862 27.7014C94.9988 27.7014 94.1257 26.7179 94.1257 25.2733V19.0647C94.1257 17.6202 94.9988 16.6366 96.4862 16.6366C97.9736 16.6366 98.879 17.6202 98.879 19.0647V25.2733C98.879 26.7179 97.9736 27.7014 96.4862 27.7014Z" fill="#85BACF"/>
<path d="M109.587 29.8529H111.462C111.753 29.8529 111.915 29.6992 111.915 29.4226V16.9747H115.116C115.375 16.9747 115.537 16.8211 115.537 16.5444V14.8847C115.537 14.6388 115.375 14.4852 115.116 14.4852H105.965C105.674 14.4852 105.513 14.6388 105.513 14.8847V16.5444C105.513 16.8211 105.674 16.9747 105.965 16.9747H109.134V29.4226C109.134 29.6992 109.296 29.8529 109.587 29.8529Z" fill="#92B8CF"/>
<path d="M124.766 30.1602C127.87 30.1602 129.81 28.1317 129.81 25.304V19.1262C129.81 16.2371 127.838 14.1471 124.766 14.1471C121.888 14.1471 119.98 16.0527 119.786 18.7267C119.786 18.9725 119.948 19.1569 120.206 19.1569H122.082C122.373 19.1569 122.502 19.0647 122.535 18.7881C122.632 17.528 123.375 16.6674 124.733 16.6674C126.188 16.6674 127.062 17.6202 127.062 19.0033V20.6937H124.636C121.597 20.6937 119.527 22.6608 119.527 25.2118C119.527 28.101 121.629 30.1602 124.766 30.1602ZM124.733 27.6399C123.214 27.6399 122.308 26.6871 122.308 25.2118C122.308 24.0132 123.214 23.0604 124.733 23.0604H127.062V25.304C127.062 26.7179 126.221 27.6399 124.733 27.6399Z" fill="#9FB5CE"/>
<path d="M147.522 14.1471C144.418 14.1471 142.348 16.2371 142.348 19.1569V35.6004C142.348 35.8463 142.51 36 142.801 36H144.709C144.968 36 145.129 35.8463 145.129 35.6004V29.146C145.873 29.7914 146.811 30.191 147.975 30.191C150.594 30.191 152.663 28.101 152.663 25.1811V19.1569C152.663 16.2371 150.594 14.1471 147.522 14.1471ZM149.883 25.2733C149.883 26.7179 149.01 27.6707 147.522 27.6707C146.035 27.6707 145.129 26.7179 145.129 25.2733V19.0647C145.129 17.6202 146.035 16.6674 147.522 16.6674C149.01 16.6674 149.883 17.6202 149.883 19.0647V25.2733Z" fill="#ACB2CD"/>
<path d="M162.785 14.1471C159.745 14.1471 157.449 16.1141 157.449 19.1877C157.449 21.2777 158.484 22.8759 160.101 23.6443L156.964 29.3611C156.803 29.6377 156.997 29.8529 157.32 29.8529H159.325C159.584 29.8529 159.778 29.7607 159.875 29.4841L162.591 24.259H164.984V29.4226C164.984 29.6992 165.145 29.8529 165.404 29.8529H167.279C167.538 29.8529 167.7 29.6992 167.7 29.4226V18.9418C167.7 16.0527 165.663 14.1471 162.785 14.1471ZM164.984 21.8002H162.72C161.2 21.8002 160.23 20.8781 160.23 19.2184C160.23 17.5587 161.265 16.6674 162.785 16.6674C164.111 16.6674 164.984 17.4972 164.984 18.9725V21.8002Z" fill="#B9B0CD"/>
<path d="M172.384 33.2646H174.13C174.421 33.2646 174.583 33.1109 174.583 32.865V29.8529H183.055V32.865C183.055 33.1109 183.249 33.2646 183.507 33.2646H185.253C185.544 33.2646 185.706 33.1109 185.706 32.865V28.9616C185.706 27.9781 185.156 27.4556 184.186 27.4556L183.96 27.3941V15.9298C183.96 14.9462 183.313 14.4237 182.279 14.4237H179.336C176.49 14.4237 174.389 16.5445 174.389 19.4336V24.6279C174.389 26.1032 173.807 26.9945 172.74 27.3634C172.255 27.5478 171.931 27.8551 171.931 28.4391V32.865C171.931 33.1109 172.093 33.2646 172.384 33.2646ZM175.908 27.4556C176.652 26.6872 177.105 25.7037 177.105 24.2284V19.618C177.105 17.8968 178.075 16.8211 179.53 16.8211H181.211V27.4556H175.908Z" fill="#C5ADCC"/>
<path d="M194.883 30.191C198.019 30.191 200.056 28.101 200.056 25.1811V19.1569C200.056 16.2371 198.019 14.1471 194.883 14.1471C191.778 14.1471 189.709 16.2371 189.709 19.1569V25.1811C189.709 28.101 191.778 30.191 194.883 30.191ZM194.883 27.7014C193.395 27.7014 192.522 26.7179 192.522 25.2733V19.0647C192.522 17.6202 193.395 16.6366 194.883 16.6366C196.37 16.6366 197.276 17.6202 197.276 19.0647V25.2733C197.276 26.7179 196.37 27.7014 194.883 27.7014Z" fill="#D2ABCC"/>
<path d="M206.257 29.853H208.068C208.359 29.853 208.521 29.6993 208.521 29.4227V22.4765C208.521 20.8475 208.489 19.2185 208.424 18.0813H208.489C208.877 19.0956 209.265 20.1406 209.685 21.1241L211.172 24.4128C211.431 25.0582 211.948 25.3656 212.692 25.3656H213.145C213.889 25.3656 214.406 25.0582 214.665 24.4128L216.12 21.1241C216.54 20.1406 216.96 19.0956 217.349 18.0813H217.413C217.348 19.2185 217.316 20.8475 217.316 22.4765V29.4227C217.284 29.6993 217.478 29.853 217.737 29.853H219.58C219.838 29.853 220 29.6993 220 29.4227V15.6839C220 14.8848 219.547 14.4545 218.707 14.4545H217.575C216.831 14.4545 216.346 14.7004 216.055 15.3766L214.18 19.3414C213.695 20.3557 213.242 21.5544 212.951 22.3843H212.886C212.595 21.5544 212.11 20.325 211.657 19.3722L209.782 15.3766C209.491 14.7004 209.006 14.4545 208.262 14.4545H207.13C206.29 14.4545 205.805 14.8848 205.805 15.6839V29.4227C205.805 29.6993 205.966 29.853 206.257 29.853Z" fill="#DFA8CB"/>
</g>
<defs>
<clipPath id="clip0_40000038_162">
<rect width="216" height="32" fill="white" transform="translate(4 4)"/>
</clipPath>
</defs>
</svg>
