<svg width="322" height="242" viewBox="0 0 322 242" fill="none" xmlns="http://www.w3.org/2000/svg">
<g filter="url(#filter0_d_147_6958)">
<path d="M1 5C1 2.79086 2.79086 1 5 1H317C319.209 1 321 2.79086 321 5V241H1V5Z" fill="white"/>
<path d="M1.5 5C1.5 3.067 3.067 1.5 5 1.5H317C318.933 1.5 320.5 3.067 320.5 5V240.5H1.5V5Z" stroke="black" stroke-opacity="0.12"/>
<path d="M161 121C190.467 121 214.333 103.1 214.333 81C214.333 58.9 190.467 41 161 41C131.533 41 107.667 58.9 107.667 81C107.667 103.1 131.533 121 161 121ZM161 141C125.4 141 54.3333 154.4 54.3333 181V191C54.3333 196.5 60.3333 201 67.6666 201H254.333C261.667 201 267.667 196.5 267.667 191V181C267.667 154.4 196.6 141 161 141Z" fill="black" fill-opacity="0.12"/>
</g>
<defs>
<filter id="filter0_d_147_6958" x="0" y="0" width="322" height="242" filterUnits="userSpaceOnUse" color-interpolation-filters="sRGB">
<feFlood flood-opacity="0" result="BackgroundImageFix"/>
<feColorMatrix in="SourceAlpha" type="matrix" values="0 0 0 0 0 0 0 0 0 0 0 0 0 0 0 0 0 0 127 0" result="hardAlpha"/>
<feMorphology radius="1" operator="dilate" in="SourceAlpha" result="effect1_dropShadow_147_6958"/>
<feOffset/>
<feColorMatrix type="matrix" values="0 0 0 0 0.878431 0 0 0 0 0.878431 0 0 0 0 0.878431 0 0 0 1 0"/>
<feBlend mode="normal" in2="BackgroundImageFix" result="effect1_dropShadow_147_6958"/>
<feBlend mode="normal" in="SourceGraphic" in2="effect1_dropShadow_147_6958" result="shape"/>
</filter>
</defs>
</svg>
