<svg width="216" height="32" viewBox="0 0 216 32" fill="none" xmlns="http://www.w3.org/2000/svg">
<g clip-path="url(#clip0_126_247)">
<path fill-rule="evenodd" clip-rule="evenodd" d="M13.8177 0C14.3865 0 15.0773 0.172963 16.5603 0.994538L17.3729 0.497269C17.9011 0.172963 18.5106 0 19.1607 0C19.6889 0 20.3593 0.108102 20.664 0.237824C20.989 0.345926 21.5376 0.778334 21.9235 1.14588C22.2892 1.53505 22.7362 2.16204 22.8784 2.52959C23.0409 2.91875 23.1628 3.63223 23.1628 4.10787C23.1628 4.58352 23.0206 5.34024 22.8377 5.79426C22.6549 6.26991 21.3547 7.8482 16.5603 12.9722L13.5536 9.79404C11.8877 8.02116 10.4453 6.39963 10.3234 6.16181C10.2016 5.92399 10.0187 5.38348 9.93746 4.97269C9.83588 4.54028 9.85619 3.78357 9.97809 3.24306C10.1 2.70255 10.4047 1.94583 10.6485 1.53505C10.9329 1.12426 11.5221 0.648612 12.0096 0.410787C12.4972 0.194583 13.3098 0 13.8177 0ZM23.6707 12.7776C23.9145 12.7776 24.6255 13.3398 25.4991 14.2695C26.7993 15.6748 27.1243 15.891 32 18.0746V28.193L25.4991 30.7226L23.5894 30.4415C22.5533 30.2902 21.6595 30.0956 21.6188 30.0091C21.5782 29.901 21.6391 29.6632 21.761 29.4686C21.9236 29.1875 22.2486 29.0794 23.0003 29.0794C23.8738 29.0794 24.077 28.9929 24.6052 28.3876C25.0724 27.8254 25.1943 27.4795 25.1943 26.7012C25.1943 25.9661 25.3162 25.5769 25.7022 25.1445C26.0476 24.7553 26.2304 24.3013 26.2101 23.8473C26.2101 23.4581 26.0882 22.8744 25.9257 22.5501C25.7429 22.1609 24.9912 21.5771 23.7926 20.8637C22.7768 20.2799 21.9439 19.6529 21.9439 19.5232C21.9439 19.3719 22.2892 19.1557 22.6955 19.0476C23.1222 18.9178 23.7316 18.7665 24.077 18.7016C24.4223 18.6152 24.9912 18.4638 25.3365 18.3557C25.8038 18.226 26.007 18.0314 26.007 17.7287C26.007 17.4909 25.8851 17.2531 25.7428 17.1882C25.621 17.1233 24.5646 17.3179 23.4066 17.6206C22.2689 17.9233 21.0703 18.1611 20.7249 18.1611C20.3796 18.1611 20.0748 18.053 20.0139 17.9449C19.953 17.8368 19.9936 17.6855 20.1155 17.6206C20.2171 17.5558 20.3186 17.3179 20.3186 17.0801C20.3186 16.8423 20.1967 16.6045 20.0545 16.5612C19.9326 16.518 18.3277 17.2963 16.4993 18.2908C14.5287 19.3935 12.9645 20.107 12.5988 20.107C12.1925 20.107 11.9216 19.9628 11.7862 19.6746C11.6643 19.4367 11.583 19.0692 11.583 18.8746C11.5627 18.6368 12.5785 17.5558 16.5603 13.9668L19.9123 13.383C21.761 13.0587 23.4472 12.7993 23.6707 12.7776ZM3.8022 13.1884C3.82251 13.1884 4.98049 13.7938 8.84042 15.8477L10.6688 15.6099C11.6643 15.5018 12.5785 15.4586 12.6597 15.5234C12.7613 15.6099 12.355 16.1072 11.7862 16.6477C11.1564 17.2531 10.6688 17.9017 10.5266 18.3773C10.3438 19.0043 10.3844 19.2854 10.6891 19.9772C10.9126 20.4313 11.3189 20.9502 11.6236 21.1015C11.9487 21.2745 12.4159 21.4042 12.7004 21.4042C12.9848 21.4042 14.3053 20.8204 18.0839 18.8097L21.5579 20.9285C23.5488 22.1393 25.0521 23.1771 25.1131 23.3933C25.1537 23.6095 25.0928 23.977 24.9912 24.2148C24.8693 24.4527 24.6052 24.6905 24.3817 24.7553C24.1176 24.8202 22.9393 24.2581 21.0297 23.1338C19.4044 22.1825 17.9824 21.4474 17.8808 21.5123C17.7589 21.5771 17.6776 21.815 17.6776 22.0528C17.6776 22.3771 18.409 22.9176 20.8265 24.3662C22.8581 25.5985 24.016 26.4201 24.0973 26.7012C24.1582 26.9606 24.0567 27.2849 23.8332 27.5228C23.63 27.739 23.2441 27.8903 22.9596 27.8903C22.6752 27.8903 20.989 27.0039 19.2013 25.9228C17.4135 24.8634 15.8086 24.0203 15.6461 24.0419C15.4836 24.0851 15.3414 24.3013 15.3414 24.5391C15.3414 24.8418 16.0524 25.3823 18.0839 26.6363C19.5873 27.5444 20.8468 28.4092 20.8671 28.5173C20.9078 28.647 20.7453 28.9497 20.5218 29.1875C20.2983 29.4253 19.8514 29.6199 19.506 29.6199C19.1403 29.6199 18.023 29.101 16.7025 28.3227C15.5039 27.6092 14.3662 27.0255 14.1631 27.0255C13.9802 27.0255 13.5333 26.7444 13.2082 26.3769C12.8629 26.0093 12.4159 25.7283 12.1925 25.7283C11.969 25.7283 11.5017 25.4472 11.1767 25.0796C10.7704 24.6472 10.3641 24.431 9.95777 24.431C9.51083 24.431 9.32799 24.3013 9.24673 23.9986C9.18578 23.7608 8.84042 23.4149 8.47475 23.2203C7.90591 22.896 7.74339 22.896 7.13393 23.1554C6.68699 23.35 6.28068 23.7824 5.97595 24.3662C5.71185 24.8851 5.3868 25.2959 5.28522 25.2959C5.16333 25.2959 3.96472 24.6472 2.58327 23.8473C1.22214 23.0473 0.0641626 22.3771 0.0032163 22.3339C-0.05773 22.3122 0.754887 20.2367 1.81129 17.7287C2.86769 15.2424 3.76157 13.1884 3.8022 13.1884ZM16.0524 29.4037C16.1133 29.4037 16.6009 29.6632 17.1494 29.9875C17.6979 30.3118 18.1855 30.7442 18.2465 30.9172C18.3074 31.0901 18.1449 31.4144 17.8605 31.6306C17.5964 31.8468 17.1291 32.0198 16.8041 31.9982C16.4993 31.9982 16.0118 31.8252 15.6867 31.6306C15.382 31.436 15.1179 31.2415 15.0773 31.1982C15.0569 31.155 15.2398 30.7442 15.4836 30.2685C15.7273 29.7929 15.9915 29.4037 16.0524 29.4037ZM7.80434 24.2581C8.04812 24.3013 8.25128 24.5175 8.29191 24.7553C8.33254 24.9932 8.10907 25.6418 7.78402 26.2039C7.47929 26.7877 7.0933 27.2849 6.95109 27.3498C6.8292 27.4146 6.5651 27.4146 6.40257 27.3498C6.24005 27.2849 6.07753 27.0471 6.05721 26.8093C6.03689 26.5715 6.32131 25.8796 6.7073 25.2959C7.21519 24.4527 7.47929 24.2148 7.80434 24.2581ZM9.89682 25.5553C10.0797 25.5985 10.3031 25.7715 10.425 25.9445C10.5672 26.1823 10.4047 26.6796 9.77493 27.8471C9.08421 29.1227 8.86074 29.4037 8.43411 29.4037C8.1497 29.4037 7.8856 29.2524 7.82465 29.0794C7.76371 28.9065 7.82465 28.5389 7.94654 28.2795C8.08875 27.9984 8.49506 27.2633 8.88105 26.6363C9.32799 25.9012 9.69367 25.5121 9.89682 25.5553ZM12.0706 27.0687C12.294 27.112 12.5175 27.3065 12.5378 27.5228C12.5785 27.7173 12.1722 28.6686 11.6236 29.6199C11.0954 30.5712 10.5266 31.3496 10.3641 31.3496C10.2016 31.3712 9.93746 31.2198 9.79525 31.0253C9.59209 30.7658 9.67335 30.4847 10.2016 29.4686C10.5469 28.7767 11.0142 27.9335 11.2376 27.6092C11.495 27.2057 11.7726 27.0255 12.0706 27.0687ZM14.1631 28.3227C14.4272 28.3227 14.6709 28.4741 14.7319 28.647C14.7928 28.82 14.5084 29.5983 14.1224 30.3766C13.5333 31.5225 13.3301 31.782 12.9035 31.782C12.6191 31.782 12.355 31.6306 12.294 31.4577C12.2331 31.2847 12.5378 30.5064 12.9441 29.728C13.513 28.6254 13.7771 28.3227 14.1631 28.3227Z" fill="#5FC2D1"/>
<path d="M45.5617 26.0988C49.054 26.0988 51.3175 23.7936 51.3175 20.5664V19.0604C51.3175 17.2777 50.3797 15.6487 48.7306 14.8189C50.0241 14.0198 50.8001 12.5445 50.8001 10.7618V9.47092C50.8001 6.24369 48.6983 4 45.5617 4C42.4575 4 40.4527 6.09001 40.291 9.37871C40.291 9.65533 40.4527 9.80901 40.7114 9.80901H42.7809C43.0395 9.80901 43.2012 9.65533 43.2336 9.37871C43.3306 7.53458 44.1066 6.58178 45.5617 6.58178C47.0168 6.58178 47.8899 7.62679 47.8899 9.2865V10.9155C47.8899 12.5445 47.0168 13.6817 45.5294 13.6817H43.4276C43.1689 13.6817 43.0072 13.8354 43.0072 14.112V15.7717C43.0072 16.0483 43.1689 16.202 43.4276 16.202H45.6264C47.3402 16.202 48.4073 17.4314 48.4073 19.0296V20.6586C48.4073 22.3183 47.3079 23.517 45.5941 23.517C44.1066 23.517 43.0719 22.472 42.9425 20.8123C42.9425 20.5357 42.7809 20.4127 42.5222 20.4127H40.4527C40.1617 20.4127 40 20.5664 40 20.8123C40.194 23.9781 42.3605 26.0988 45.5617 26.0988Z" fill="#5FC2D1"/>
<path d="M61.2943 26.1602C64.3985 26.1602 66.3386 24.1317 66.3386 21.304V15.1262C66.3386 12.2371 64.3662 10.1471 61.2943 10.1471C58.4164 10.1471 56.5086 12.0527 56.3146 14.7267C56.3146 14.9725 56.4763 15.1569 56.735 15.1569H58.6104C58.9014 15.1569 59.0308 15.0647 59.0631 14.7881C59.1601 13.528 59.9038 12.6674 61.2619 12.6674C62.717 12.6674 63.5901 13.6202 63.5901 15.0033V16.6937H61.1649C58.1254 16.6937 56.0559 18.6608 56.0559 21.2118C56.0559 24.101 58.1577 26.1602 61.2943 26.1602ZM61.2619 23.6399C59.7422 23.6399 58.8368 22.6871 58.8368 21.2118C58.8368 20.0132 59.7422 19.0604 61.2619 19.0604H63.5901V21.304C63.5901 22.7179 62.7494 23.6399 61.2619 23.6399Z" fill="#6CBFD0"/>
<path d="M76.9448 26.1911C80.0491 26.1911 82.0862 24.1933 82.0862 21.4271V15.6795C82.0862 12.7904 80.2107 10.7926 77.6239 10.7926C76.2981 10.7926 75.328 11.1922 74.5843 11.8991V10.977C74.5843 8.73332 75.3281 7.90346 76.9125 7.35022C77.8179 7.04287 79.3377 6.73551 80.5341 6.52036C80.7928 6.48963 80.9221 6.33595 80.9221 6.09007V4.43035C80.9221 4.15373 80.7281 4.03079 80.4371 4.06153C79.4347 4.27667 77.9472 4.58403 76.3951 5.01432C73.5819 5.78271 71.8035 7.56537 71.8035 11.0077V21.4271C71.8035 24.1933 73.8729 26.1911 76.9448 26.1911ZM76.9448 23.6708C75.4574 23.6708 74.5843 22.6872 74.5843 21.2119V15.7717C74.5843 14.2964 75.4574 13.2822 76.9448 13.2822C78.4323 13.2822 79.3377 14.2964 79.3377 15.7717V21.2119C79.3377 22.6872 78.4323 23.6708 76.9448 23.6708Z" fill="#79BDD0"/>
<path d="M92.4863 26.191C95.6229 26.191 97.66 24.101 97.66 21.1811V15.1569C97.66 12.2371 95.6229 10.1471 92.4863 10.1471C89.3821 10.1471 87.3126 12.2371 87.3126 15.1569V21.1811C87.3126 24.101 89.3821 26.191 92.4863 26.191ZM92.4863 23.7014C90.9989 23.7014 90.1258 22.7179 90.1258 21.2733V15.0647C90.1258 13.6202 90.9989 12.6366 92.4863 12.6366C93.9738 12.6366 94.8792 13.6202 94.8792 15.0647V21.2733C94.8792 22.7179 93.9738 23.7014 92.4863 23.7014Z" fill="#85BACF"/>
<path d="M105.587 25.8529H107.462C107.753 25.8529 107.915 25.6992 107.915 25.4226V12.9747H111.116C111.375 12.9747 111.537 12.8211 111.537 12.5444V10.8847C111.537 10.6388 111.375 10.4852 111.116 10.4852H101.965C101.674 10.4852 101.513 10.6388 101.513 10.8847V12.5444C101.513 12.8211 101.674 12.9747 101.965 12.9747H105.134V25.4226C105.134 25.6992 105.296 25.8529 105.587 25.8529Z" fill="#92B8CF"/>
<path d="M120.766 26.1602C123.87 26.1602 125.81 24.1317 125.81 21.304V15.1262C125.81 12.2371 123.837 10.1471 120.766 10.1471C117.888 10.1471 115.98 12.0527 115.786 14.7267C115.786 14.9725 115.948 15.1569 116.206 15.1569H118.082C118.373 15.1569 118.502 15.0647 118.534 14.7881C118.631 13.528 119.375 12.6674 120.733 12.6674C122.188 12.6674 123.061 13.6202 123.061 15.0033V16.6937H120.636C117.597 16.6937 115.527 18.6608 115.527 21.2118C115.527 24.101 117.629 26.1602 120.766 26.1602ZM120.733 23.6399C119.213 23.6399 118.308 22.6871 118.308 21.2118C118.308 20.0132 119.213 19.0604 120.733 19.0604H123.061V21.304C123.061 22.7179 122.221 23.6399 120.733 23.6399Z" fill="#9FB5CE"/>
<path d="M143.522 10.1471C140.418 10.1471 138.348 12.2371 138.348 15.1569V31.6004C138.348 31.8463 138.51 32 138.801 32H140.709C140.968 32 141.129 31.8463 141.129 31.6004V25.146C141.873 25.7914 142.811 26.191 143.975 26.191C146.594 26.191 148.663 24.101 148.663 21.1811V15.1569C148.663 12.2371 146.594 10.1471 143.522 10.1471ZM145.883 21.2733C145.883 22.7179 145.01 23.6707 143.522 23.6707C142.035 23.6707 141.129 22.7179 141.129 21.2733V15.0647C141.129 13.6202 142.035 12.6674 143.522 12.6674C145.01 12.6674 145.883 13.6202 145.883 15.0647V21.2733Z" fill="#ACB2CD"/>
<path d="M158.785 10.1471C155.745 10.1471 153.449 12.1141 153.449 15.1877C153.449 17.2777 154.484 18.8759 156.101 19.6443L152.964 25.3611C152.803 25.6377 152.997 25.8529 153.32 25.8529H155.325C155.583 25.8529 155.777 25.7607 155.874 25.4841L158.591 20.259H160.983V25.4226C160.983 25.6992 161.145 25.8529 161.404 25.8529H163.279C163.538 25.8529 163.7 25.6992 163.7 25.4226V14.9418C163.7 12.0527 161.663 10.1471 158.785 10.1471ZM160.983 17.8002H158.72C157.2 17.8002 156.23 16.8781 156.23 15.2184C156.23 13.5587 157.265 12.6674 158.785 12.6674C160.11 12.6674 160.983 13.4972 160.983 14.9725V17.8002Z" fill="#B9B0CD"/>
<path d="M168.384 29.2646H170.13C170.421 29.2646 170.583 29.1109 170.583 28.865V25.8529H179.055V28.865C179.055 29.1109 179.249 29.2646 179.507 29.2646H181.254C181.545 29.2646 181.706 29.1109 181.706 28.865V24.9616C181.706 23.9781 181.157 23.4556 180.186 23.4556L179.96 23.3941V11.9298C179.96 10.9462 179.313 10.4237 178.279 10.4237H175.336C172.491 10.4237 170.389 12.5445 170.389 15.4336V20.6279C170.389 22.1032 169.807 22.9945 168.74 23.3634C168.255 23.5478 167.931 23.8551 167.931 24.4391V28.865C167.931 29.1109 168.093 29.2646 168.384 29.2646ZM171.909 23.4556C172.652 22.6872 173.105 21.7037 173.105 20.2284V15.618C173.105 13.8968 174.075 12.8211 175.53 12.8211H177.212V23.4556H171.909Z" fill="#C5ADCC"/>
<path d="M190.883 26.191C194.019 26.191 196.056 24.101 196.056 21.1811V15.1569C196.056 12.2371 194.019 10.1471 190.883 10.1471C187.778 10.1471 185.709 12.2371 185.709 15.1569V21.1811C185.709 24.101 187.778 26.191 190.883 26.191ZM190.883 23.7014C189.395 23.7014 188.522 22.7179 188.522 21.2733V15.0647C188.522 13.6202 189.395 12.6366 190.883 12.6366C192.37 12.6366 193.276 13.6202 193.276 15.0647V21.2733C193.276 22.7179 192.37 23.7014 190.883 23.7014Z" fill="#D2ABCC"/>
<path d="M202.257 25.853H204.068C204.359 25.853 204.521 25.6993 204.521 25.4227V18.4765C204.521 16.8475 204.489 15.2185 204.424 14.0813H204.489C204.877 15.0956 205.265 16.1406 205.685 17.1241L207.172 20.4128C207.431 21.0582 207.948 21.3656 208.692 21.3656H209.145C209.889 21.3656 210.406 21.0582 210.665 20.4128L212.12 17.1241C212.54 16.1406 212.96 15.0956 213.349 14.0813H213.413C213.348 15.2185 213.316 16.8475 213.316 18.4765V25.4227C213.284 25.6993 213.478 25.853 213.737 25.853H215.58C215.838 25.853 216 25.6993 216 25.4227V11.6839C216 10.8848 215.547 10.4545 214.707 10.4545H213.575C212.831 10.4545 212.346 10.7004 212.055 11.3766L210.18 15.3414C209.695 16.3557 209.242 17.5544 208.951 18.3843H208.886C208.595 17.5544 208.11 16.325 207.657 15.3722L205.782 11.3766C205.491 10.7004 205.006 10.4545 204.262 10.4545H203.13C202.29 10.4545 201.805 10.8848 201.805 11.6839V25.4227C201.805 25.6993 201.966 25.853 202.257 25.853Z" fill="#DFA8CB"/>
</g>
<defs>
<clipPath id="clip0_126_247">
<rect width="216" height="32" fill="white"/>
</clipPath>
</defs>
</svg>
